<?xml version="1.0" encoding="UTF-8"?>
<!DOCTYPE svg PUBLIC "-//W3C//DTD SVG 1.1//EN" "http://www.w3.org/Graphics/SVG/1.1/DTD/svg11.dtd">
<!-- Creator: CorelDRAW 2019 (64-Bit) -->
<svg xmlns="http://www.w3.org/2000/svg" xml:space="preserve" width="15.13in" height="15.4593in" version="1.1" style="shape-rendering:geometricPrecision; text-rendering:geometricPrecision; image-rendering:optimizeQuality; fill-rule:evenodd; clip-rule:evenodd"
viewBox="0 0 6603.87 6747.63"
 xmlns:xlink="http://www.w3.org/1999/xlink">
 <defs>
  <style type="text/css">
   <![CDATA[
    .fil2 {fill:url(#id0)}
    .fil0 {fill:url(#id1)}
    .fil1 {fill:url(#id2)}
   ]]>
  </style>
  <linearGradient id="id0" gradientUnits="userSpaceOnUse" x1="-0" y1="5365.99" x2="3049.51" y2="5365.99">
   <stop offset="0" style="stop-opacity:1; stop-color:#2B2B2C"/>
   <stop offset="1" style="stop-opacity:1; stop-color:#525252"/>
  </linearGradient>
  <linearGradient id="id1" gradientUnits="userSpaceOnUse" x1="-0" y1="3170.03" x2="6603.87" y2="3170.03">
   <stop offset="0" style="stop-opacity:1; stop-color:#282829"/>
   <stop offset="1" style="stop-opacity:1; stop-color:#545454"/>
  </linearGradient>
  <linearGradient id="id2" gradientUnits="userSpaceOnUse" x1="2536.11" y1="1961.69" x2="3049.51" y2="1961.69">
   <stop offset="0" style="stop-opacity:1; stop-color:#282829"/>
   <stop offset="1" style="stop-opacity:1; stop-color:#444545"/>
  </linearGradient>
 </defs>
 <g id="Layer_x0020_1">
  <metadata id="CorelCorpID_0Corel-Layer"/>
  <path class="fil0" d="M-0 4981.23l2536.11 -1468.97 513.4 -298.51 500.55 -290.06 0.49 -2923.69 3053.32 1760.48 -2012.77 1168.26 1832.6 1062.89 -429.07 350.46 -1931.28 -1115.14 0 2692.59 -512.8 420.54 -0.27 -2824.62 -496.41 279.75 0 -0 -522.13 293.7 0 0.56 -1521.63 857.48 -1010.11 34.29zm5573.2 -3219.5l-1509.85 863.99 0 -1735.59 1509.85 871.59z"/>
  <polygon class="fil1" points="2536.11,3512.26 3049.51,3213.75 3049.51,411.12 2536.7,828.08 "/>
  <polygon class="fil2" points="-0,4981.23 1010.11,4946.94 2536.11,5828.82 2536.11,4273.15 3049.51,3984.36 3049.51,6747.63 "/>
 </g>
</svg>
