<?xml version="1.0" encoding="UTF-8"?>
<!DOCTYPE svg PUBLIC "-//W3C//DTD SVG 1.1//EN" "http://www.w3.org/Graphics/SVG/1.1/DTD/svg11.dtd">
<!-- Creator: CorelDRAW 2019 (64-Bit) -->
<svg xmlns="http://www.w3.org/2000/svg" xml:space="preserve" width="4.14797in" height="5.87029in" version="1.1" style="shape-rendering:geometricPrecision; text-rendering:geometricPrecision; image-rendering:optimizeQuality; fill-rule:evenodd; clip-rule:evenodd"
viewBox="0 0 300.45 425.2"
 xmlns:xlink="http://www.w3.org/1999/xlink">
 <defs>
  <style type="text/css">
   <![CDATA[
    .str0 {stroke:#373435;stroke-width:2.01;stroke-miterlimit:2.61313}
    .fil0 {fill:none}
   ]]>
  </style>
 </defs>
 <g id="Layer_x0020_1">
  <metadata id="CorelCorpID_0Corel-Layer"/>
  <path class="fil0 str0" d="M6.93 419.35c18.42,3.45 38.3,2.26 59.86,2.47 54.78,0.54 112.74,-5.73 168.92,-8.44 21.67,-1.05 46.14,-0.17 63.69,3.95 -0.42,-15.58 0.18,-28.3 -3.92,-37.94 -7.37,-17.37 -26.61,-24.81 -47.47,-36.3 1.2,8.96 -6.88,35.49 -21.51,47.23l-0.45 0.39c-3,-18.31 14.15,-44.49 17.38,-61.56 1.64,-8.67 4.67,-27.69 5.11,-47.73 0.26,-11.58 -12.03,-21.94 -10.88,-29.88 1.54,-10.61 7.66,-18.81 8.72,-20.36 0.06,-0.08 0.81,8.26 1.59,11.24 0.02,0.07 4.79,-12.12 12.1,-21.96 6.24,-8.4 13.51,-13.51 13.59,-13.65"/>
  <path class="fil0 str0" d="M16.71 424.42c4.02,-3.28 24.1,-34.4 44.93,-36.37 1.4,-0.13 14.44,-22.34 37.98,-17.58 12.09,2.44 64.89,25.36 63.61,31.71"/>
  <path class="fil0 str0" d="M109.66 373.63c-2.52,-4.25 -2.61,-7.01 -0.99,-8.66 3.12,-3.17 15.17,-5.13 25.88,-2.7 17.3,3.91 35.69,15.28 37.98,15.53 0.16,0.02 -2.39,-2.57 -2.63,-9.11 -0.53,-14.52 -8.92,-45.46 -14.33,-58.48 -7.62,-18.35 -14.92,-21.95 -24.99,-37.08 -7.71,-11.59 -16.03,-25.86 -12.78,-24.77 8.06,2.7 18.07,14.25 26.34,18.47 3.69,1.89 9.02,5.77 13.57,10.01 6.91,6.44 12.45,18.95 17.85,27.02 9.91,14.82 10.96,35.52 15.99,45.29l0.15 0.69c-0.93,1.39 -8.38,-16.26 -9.74,-19.19 -4.1,-8.81 -26.18,-53.96 -29.57,-63.14 0.24,-1.4 -10.61,-24.22 -12.44,-26.06 -4.36,-4.38 -12.78,-14.71 -18.26,-24.24 -2.4,-4.17 -5.23,-8.87 -5.23,-11.71"/>
  <path class="fil0 str0" d="M16.71 424.42c3.2,-12.73 9.3,-22.31 18.79,-30.28 25.86,-21.71 60.48,-42.24 66.21,-77.68 2.51,-15.53 7.1,-34.35 -1.33,-51.08 -5.04,-10.01 -11.72,-21.84 -20.76,-34.57 18.43,10.14 17.65,16.01 18.16,34.47l-0.51 21.34 -3.71 -13.93c0.82,7.38 1.69,13.22 0.11,19.99 0.59,-4.73 -12.67,-24.44 -29.42,-47.93 -4.66,-6.53 -13.72,-8.64 -21.5,-10.06 -5.1,-0.93 -29.3,-29.09 -34.66,-34.78"/>
  <path class="fil0 str0" d="M116.45 205.51c21.27,15.75 20.51,14.77 49.18,24.61 16.04,5.51 20.2,7.28 22.91,7.01 3.15,-0.31 16.13,-5.31 26.67,-9.17 10.58,-3.88 63.82,-15.74 68.45,-31.42 1.4,-4.75 -0.48,-13.33 -2.64,-17.7 -2.63,-5.29 -9.6,-10.16 -10.36,-12.15 -4.59,-12.05 -18.92,7.16 -19.9,6.84 4.2,-5.05 8.66,-10.72 10.99,-13.23 1.04,-0.51 3.14,-9.02 -6.95,-7.44 -2.88,0.45 -6.21,1.44 -8.09,2.07 -4.73,1.59 -15.67,7.17 -19.94,7.51 -2.26,0.18 -1.64,-2.91 -0.29,-4.26 4.27,-3.64 3.58,-2.9 8.37,-5.7 5.52,-3.22 11.9,-9.86 18.71,-9.86 1.69,0 8.72,1.06 7.82,-1.12 -0.31,-0.75 0.48,-0.41 -0.71,-2.22 -2.43,-3.69 -7.6,-8.77 -12.57,-6.45 -4.42,2.06 -30.85,29.45 -21.45,29.45"/>
  <path class="fil0 str0" d="M248.12 132.85c-0.51,-1.11 -0,-3.31 -1.39,-5.51 -2.42,-3.86 -4.33,-4.26 -5.56,-9.6 -0.65,-2.83 -1.58,0.46 -3.37,2.47 -1.72,1.93 -3.61,6.28 -7.32,5.77 -1.16,-0.16 -4.48,-3.11 -2.02,-5.35 0.99,-0.91 8.74,-9.34 2.73,-6.2 -5.23,2.73 -4.75,6.95 -6.57,11.47 -1.23,3.07 -3.64,2.36 -6.72,3.63 -0.85,0.35 -4.91,-0.51 -5.05,-1.43 -1.79,-0.37 4.51,-10.04 4.6,-11.77 0.04,-0.9 0.75,-5.52 1.58,-5.63 2.65,-0.33 11.69,-4.58 12.47,-6.86 0.07,-0.86 2.47,-5.53 2.47,-8.87 4.81,0 7.72,7.27 8.21,11.23 0.67,5.43 1.6,8.57 2.43,10.32 1.81,3.79 1.84,1.26 2.07,-1.11 0.38,-3.9 0.42,-10.77 -2.85,-16.17 -1.52,-2.51 -3.96,-3.65 -6.28,-3.92 -5.28,-0.63 -32.09,-4.16 -33.82,-6.02 -0.49,-0.28 -1.05,-1.98 -1.29,-2.6 -0.55,-1.42 -2.56,-8.59 -1.81,-9.64 0.47,-0.66 2.38,-0.04 3.98,-1.02 0.21,-0.13 5.64,-2.81 5.66,-2.82 0.18,-0.06 0.43,-0.29 0.61,-0.27 1.17,0.32 1.2,-0.86 3.69,1.24 0.9,0.76 2.92,2.23 1.28,2.99 -0.73,0.34 -8.41,7.69 -8.62,8.3"/>
  <path class="fil0 str0" d="M218.92 88.61c0.1,-2.55 -2.44,-5.63 -2.63,-6.62 -0.27,-1.41 -3.75,-6.12 -5.31,-8.27 -4.07,-5.58 -10.86,-11.72 -19,-17.25 -5.8,-3.95 -12.06,-9.17 -18.72,-12.09 -13.93,-6.12 -27.85,-6.5 -38.68,-2.49 -8.79,3.25 -29.48,14.86 -29.48,25.05"/>
  <path class="fil0 str0" d="M258.57 214.1c-2.72,2.42 -18.7,-4.66 -21.89,-9.28 -4.93,-7.14 -10.38,-14.51 -16.79,-20.44 -13.37,-12.36 -29.05,-42 -41.67,-52.29 -4.13,-3.37 -68.66,45.52 -74.02,48.32"/>
  <path class="fil0 str0" d="M67.82 214.45c-2.06,-0.77 -5.27,-2.8 -8.39,-3.44 -4.23,-0.87 -7.54,1.77 -6.89,-4.31 0.73,-6.87 -1.02,-16.83 5.84,-16.51 6.6,0.31 25.12,1.48 29.65,-0.39 6.01,-2.48 10.36,-0.79 14.97,-8.65 0.29,-0.49 0.64,-0.51 1.19,-0.73 -0.6,2.09 -0.04,3.36 2.25,4.36 4.89,2.13 8.03,8.52 9.99,20.74 1.5,1.69 9.56,14.63 10.88,17.36 3.6,7.48 3.56,14.81 -5.96,15.94 -9.59,1.14 -34.04,-3.07 -40.77,-7.33 -3.85,-2.44 -16.5,-14.01 -16.09,-18.73 -0.04,-0 -9.45,-13.58 -3.12,-19.58 8.83,-8.37 13.14,-8.85 23.3,-0.69 7.07,5.67 3.98,10.16 9.36,11.56 2.65,0.7 27.48,5.74 16.91,9.66 -14.06,5.22 -2.81,4.24 -8.99,11.06 -2.84,3.14 -19.13,0.21 -22.42,-1.82 -6.48,-3.99 -5.91,0.26 -8.57,-10.09 -1.34,-5.23 -0.44,-4.59 -3.03,-11.32 -1.33,-3.47 -4.76,-10.44 -0.12,-13.61"/>
  <path class="fil0 str0" d="M75.05 186.89c2.41,0.84 7.59,1.67 9.76,0.18 2.44,-1.67 12.17,-1.54 11.99,-5.76 -0.1,-2.27 -0.1,-8.02 0.71,-10.14 0.22,-0.57 1.69,-2.8 1.86,-3.11 12.21,-21.56 30.09,-36.3 52.26,-46.4"/>
  <path class="fil0 str0" d="M104.28 141.68c1.53,-10.18 7.16,-20.15 26.44,-37.6 7.64,-6.92 14.78,-11.96 30.03,-17.56 4.93,-1.81 15.69,-4.63 21.92,-2.19 0.01,0.07 -3.52,-9.45 -5.17,-9.19 -4.17,0.66 -19.02,3.13 -30.76,6.15 -7.92,2.04 -13.34,7.37 -12.93,12.47 0,0.06 -2.25,7.94 -4.38,14.26 -1.42,4.22 -4.99,17.89 -1.07,12.37 4.94,-6.95 5.36,-6.97 11.4,-7.41 0.95,-0.07 2.18,-0.71 3.15,-3.03 9.91,-23.79 38.77,-24.56 40.41,-9.96 1.28,11.3 4.03,0.19 4.29,6.8 0.08,2.12 -8.32,1.89 -4.64,6.66 1.43,1.86 -2.66,-0.31 -2.12,2.08 0.31,1.39 -5.34,-0.98 -10.03,2.6 -1.83,1.4 -19.94,4.08 -21.44,3.52 -1.19,-0.44 -2.19,-2.06 1.18,-2.49 3.51,-0.45 -6.78,-3.84 3.63,-3.84 7.36,0 12.69,-7.6 20.16,-6.96 2.03,0.17 -1.2,-5.34 5.62,-2.53 1.09,0.45 3.83,0.03 4.61,-0.82"/>
  <path class="fil0 str0" d="M173.26 44.38c0.68,-0.76 -4.35,-9.91 -4.71,-11.92 -0.71,-3.9 -14.8,-18.1 -18.66,-20.44 -3.93,-2.38 -5.25,-4.76 -10.8,-6.12 -14.76,-3.62 -5.33,-7.29 -25.59,-2.88 -7.73,1.68 -12.81,2.51 -20.16,6.58 -14.57,8.07 -29.79,12.83 -37.06,28.85 -0.71,1.57 7.74,-10.06 -2.55,-2.64 -3.82,2.76 -4.78,6.97 -5.58,7.8 -2.65,7.45 -7.1,13.72 -10.56,20.9 -6.38,13.28 -12.52,29.8 -18.72,42.44 -0.67,1.37 -8,31.28 -6.17,30.03 2.99,-2.05 6.9,-32.04 8.19,-38.84 1.27,-6.72 5.18,-16.51 8.05,-25.41 0.17,-0.52 -0.79,0.16 -2.4,3.53 -6.76,14.11 -13.79,25.87 -16.95,42.39 -1.24,6.45 -4.33,22.2 -4.33,29.77 0,18.61 2.85,35.01 2.85,51.49 -3.46,-21.45 -10.7,-43.97 -4.92,-65.76 1.23,-4.65 7.83,-24.33 12.28,-25.25 9.22,-1.91 8.48,25.73 8.48,32.16 0,3.45 1.05,19.34 5.26,12.09 4.11,-7.07 5.95,-13.7 8.42,-20.54 3.61,-10 14.62,-30.04 21.54,-39.09 10.62,-13.87 23.85,-28.33 36.87,-40.45 4.76,-4.43 11.01,-7.37 10.97,-7.27 -4.73,12.63 -16.78,24.8 -21.43,41.33 -0.15,0.54 -5.6,9.6 -3.24,8.96 0.01,-0 12.75,-18.89 18.83,-22.64 5.6,-3.45 14.41,-13.62 15.28,-15.51"/>
  <path class="fil0 str0" d="M104.28 141.68c-0.69,-4 0.46,-5.34 -2.09,-10.18 -1.44,-2.73 0.69,-6.68 -3.29,-11.67 -2.02,-2.54 -4.48,-8.94 -5.4,-12.18 -3.53,-12.38 5.78,-24.24 7.38,-34.02"/>
  <path class="fil0 str0" d="M104.2 180.41l6.69 -4.52 8.76 0.65c-9.13,-19.19 -16.74,-37.62 -24.11,-55.93 -0.62,-1.55 0.01,-2.75 0.88,-4.16 0.18,-0.29 1.62,-7.99 1.61,-8.35 -0.21,-4.43 12.45,-28.31 12.69,-35.76 0.08,-2.51 -3.74,-5.16 -5.63,-5.41"/>
  <path class="fil0 str0" d="M8.09 199.03c1.75,-7.59 11.03,-27.35 19.79,-34.48 1.83,-1.49 3.02,-1.97 4.47,-1.8 5,0.57 14.51,10.68 14.37,6.67 -0.64,-18.95 23.46,-66.77 35.59,-73.31"/>
 </g>
</svg>
